{
 "cells": [
  {
   "cell_type": "code",
   "execution_count": 49,
   "metadata": {},
   "outputs": [],
   "source": [
    "# !pip3 install numpy\n",
    "# !pip3 install matplotlib\n",
    "# !pip3 install scipy\n",
    "# !pip3 install tensorflow_datasets\n",
    "# !pip3 install opencv-python\n",
    "# !pip3 install h5py\n",
    "# !pip3 install tensorflow\n",
    "# !pip3 install pandas\n",
    "# !pip3 install black\n",
    "# !pip3 install nbqa"
   ]
  },
  {
   "cell_type": "code",
   "execution_count": 50,
   "metadata": {},
   "outputs": [],
   "source": [
    "import subprocess\n",
    "import json\n",
    "import glob"
   ]
  },
  {
   "cell_type": "code",
   "execution_count": 51,
   "metadata": {},
   "outputs": [],
   "source": [
    "import numpy as np\n",
    "import matplotlib.pyplot as plt\n",
    "from scipy.spatial.transform import Rotation as R\n",
    "from PIL import Image\n",
    "from IPython import display\n",
    "import tensorflow_datasets as tfds\n",
    "import cv2\n",
    "import h5py\n",
    "import tensorflow as tf\n",
    "import pandas as pd\n",
    "import os"
   ]
  },
  {
   "cell_type": "code",
   "execution_count": null,
   "metadata": {},
   "outputs": [],
   "source": []
  },
  {
   "cell_type": "code",
   "execution_count": 52,
   "metadata": {},
   "outputs": [],
   "source": [
    "tf.data.experimental.enable_debug_mode()\n",
    "tf.config.run_functions_eagerly(True)"
   ]
  },
  {
   "cell_type": "code",
   "execution_count": 53,
   "metadata": {},
   "outputs": [
    {
     "name": "stdout",
     "output_type": "stream",
     "text": [
      "FeaturesDict({\n",
      "    'episode_metadata': FeaturesDict({\n",
      "        'file_path': string,\n",
      "        'recording_folderpath': string,\n",
      "    }),\n",
      "    'steps': Dataset({\n",
      "        'action': Tensor(shape=(7,), dtype=float64),\n",
      "        'action_dict': FeaturesDict({\n",
      "            'cartesian_position': Tensor(shape=(6,), dtype=float64),\n",
      "            'cartesian_velocity': Tensor(shape=(6,), dtype=float64),\n",
      "            'gripper_position': Tensor(shape=(1,), dtype=float64),\n",
      "            'gripper_velocity': Tensor(shape=(1,), dtype=float64),\n",
      "            'joint_position': Tensor(shape=(7,), dtype=float64),\n",
      "            'joint_velocity': Tensor(shape=(7,), dtype=float64),\n",
      "        }),\n",
      "        'discount': Scalar(shape=(), dtype=float32),\n",
      "        'is_first': bool,\n",
      "        'is_last': bool,\n",
      "        'is_terminal': bool,\n",
      "        'language_instruction': string,\n",
      "        'language_instruction_2': string,\n",
      "        'language_instruction_3': string,\n",
      "        'observation': FeaturesDict({\n",
      "            'cartesian_position': Tensor(shape=(6,), dtype=float64),\n",
      "            'exterior_image_1_left': Image(shape=(180, 320, 3), dtype=uint8),\n",
      "            'exterior_image_2_left': Image(shape=(180, 320, 3), dtype=uint8),\n",
      "            'gripper_position': Tensor(shape=(1,), dtype=float64),\n",
      "            'joint_position': Tensor(shape=(7,), dtype=float64),\n",
      "            'wrist_image_left': Image(shape=(180, 320, 3), dtype=uint8),\n",
      "        }),\n",
      "        'reward': Scalar(shape=(), dtype=float32),\n",
      "    }),\n",
      "})\n"
     ]
    }
   ],
   "source": [
    "builder = tfds.builder_from_directory(builder_dir=\"../../data/droid_100/1.0.0/\")\n",
    "print(builder.info.features)"
   ]
  },
  {
   "cell_type": "code",
   "execution_count": 54,
   "metadata": {},
   "outputs": [],
   "source": [
    "def load_dataset(data, step_size=1):\n",
    "    return zip(*[(data[i][:3], data[i][3:]) for i in range(0, len(data), step_size)])"
   ]
  },
  {
   "cell_type": "code",
   "execution_count": 55,
   "metadata": {},
   "outputs": [],
   "source": [
    "def get_information(i):\n",
    "    return {\n",
    "        \"dataFolderName\": \"robot_data_example\",\n",
    "        \"startTime\": \"2024-09-21T10:00:00Z\",\n",
    "        \"endTime\": \"2024-09-21T12:00:00Z\",\n",
    "        \"robotEmbodiment\": \"ALOHA\",\n",
    "        \"robotSerialNumber\": \"RS123456\",\n",
    "        \"videoSamplingRate\": 10,\n",
    "        \"armSamplingRate\": 50,\n",
    "        \"sensorSamplingRate\": 60,\n",
    "        \"operatorName\": \"John Doe\",\n",
    "        \"taskDescription\": \"Sample Task\",\n",
    "        \"subtaskDescription\": \"Subtask Description\",\n",
    "        \"taskState\": \"SUCCESS\",\n",
    "        \"subtaskState\": \"SUCCESS\",\n",
    "        \"dataLength\": 0,\n",
    "        \"durationInSeconds\": 0,\n",
    "        \"cameras\": [\n",
    "            \"exterior_image_1_left\",\n",
    "            \"exterior_image_2_left\",\n",
    "            \"wrist_image_left\",\n",
    "        ],\n",
    "        \"joints\": [\"cartesian_position\"],\n",
    "    }"
   ]
  },
  {
   "cell_type": "code",
   "execution_count": 60,
   "metadata": {},
   "outputs": [
    {
     "name": "stderr",
     "output_type": "stream",
     "text": [
      "ffmpeg version 7.0.1 Copyright (c) 2000-2024 the FFmpeg developers\n",
      "  built with Apple clang version 15.0.0 (clang-1500.3.9.4)\n",
      "  configuration: --prefix=/opt/homebrew/Cellar/ffmpeg/7.0.1 --enable-shared --enable-pthreads --enable-version3 --cc=clang --host-cflags= --host-ldflags='-Wl,-ld_classic' --enable-ffplay --enable-gnutls --enable-gpl --enable-libaom --enable-libaribb24 --enable-libbluray --enable-libdav1d --enable-libharfbuzz --enable-libjxl --enable-libmp3lame --enable-libopus --enable-librav1e --enable-librist --enable-librubberband --enable-libsnappy --enable-libsrt --enable-libssh --enable-libsvtav1 --enable-libtesseract --enable-libtheora --enable-libvidstab --enable-libvmaf --enable-libvorbis --enable-libvpx --enable-libwebp --enable-libx264 --enable-libx265 --enable-libxml2 --enable-libxvid --enable-lzma --enable-libfontconfig --enable-libfreetype --enable-frei0r --enable-libass --enable-libopencore-amrnb --enable-libopencore-amrwb --enable-libopenjpeg --enable-libspeex --enable-libsoxr --enable-libzmq --enable-libzimg --disable-libjack --disable-indev=jack --enable-videotoolbox --enable-audiotoolbox --enable-neon\n",
      "  libavutil      59.  8.100 / 59.  8.100\n",
      "  libavcodec     61.  3.100 / 61.  3.100\n",
      "  libavformat    61.  1.100 / 61.  1.100\n",
      "  libavdevice    61.  1.100 / 61.  1.100\n",
      "  libavfilter    10.  1.100 / 10.  1.100\n",
      "  libswscale      8.  1.100 /  8.  1.100\n",
      "  libswresample   5.  1.100 /  5.  1.100\n",
      "  libpostproc    58.  1.100 / 58.  1.100\n",
      "Input #0, image2, from '../public/data/droid_00000000/images/wrist_image_left__image_%08d.webp':\n",
      "  Duration: 00:00:05.53, start: 0.000000, bitrate: N/A\n",
      "  Stream #0:0: Video: webp, yuv420p(tv, bt470bg/unknown/unknown), 88x50, 30 fps, 30 tbr, 30 tbn\n",
      "Stream mapping:\n",
      "  Stream #0:0 -> #0:0 (webp (native) -> h264 (libx264))\n",
      "Press [q] to stop, [?] for help\n",
      "[libx264 @ 0x15010b6c0] using cpu capabilities: ARMv8 NEON\n",
      "[libx264 @ 0x15010b6c0] profile High, level 1.0, 4:2:0, 8-bit\n",
      "[libx264 @ 0x15010b6c0] 264 - core 164 r3108 31e19f9 - H.264/MPEG-4 AVC codec - Copyleft 2003-2023 - http://www.videolan.org/x264.html - options: cabac=1 ref=3 deblock=1:0:0 analyse=0x3:0x113 me=hex subme=7 psy=1 psy_rd=1.00:0.00 mixed_ref=1 me_range=16 chroma_me=1 trellis=1 8x8dct=1 cqm=0 deadzone=21,11 fast_pskip=1 chroma_qp_offset=-2 threads=2 lookahead_threads=1 sliced_threads=0 nr=0 decimate=1 interlaced=0 bluray_compat=0 constrained_intra=0 bframes=3 b_pyramid=2 b_adapt=1 b_bias=0 direct=1 weightb=1 open_gop=0 weightp=2 keyint=250 keyint_min=25 scenecut=40 intra_refresh=0 rc_lookahead=40 rc=crf mbtree=1 crf=23.0 qcomp=0.60 qpmin=0 qpmax=69 qpstep=4 ip_ratio=1.40 aq=1:1.00\n",
      "Output #0, mp4, to '../public/data/droid_00000000/video.mp4':\n",
      "  Metadata:\n",
      "    encoder         : Lavf61.1.100\n",
      "  Stream #0:0: Video: h264 (avc1 / 0x31637661), yuv420p(tv, bt470bg/unknown/unknown, progressive), 88x50, q=2-31, 30 fps, 15360 tbn\n",
      "      Metadata:\n",
      "        encoder         : Lavc61.3.100 libx264\n",
      "      Side data:\n",
      "        cpb: bitrate max/min/avg: 0/0/0 buffer size: 0 vbv_delay: N/A\n",
      "[out#0/mp4 @ 0x15010a4d0] video:35KiB audio:0KiB subtitle:0KiB other streams:0KiB global headers:0KiB muxing overhead: 7.520246%\n",
      "frame=  166 fps=0.0 q=-1.0 Lsize=      38KiB time=00:00:05.46 bitrate=  56.3kbits/s speed= 140x    \n",
      "[libx264 @ 0x15010b6c0] frame I:1     Avg QP:26.67  size:  1318\n",
      "[libx264 @ 0x15010b6c0] frame P:64    Avg QP:27.20  size:   406\n",
      "[libx264 @ 0x15010b6c0] frame B:101   Avg QP:30.81  size:    77\n",
      "[libx264 @ 0x15010b6c0] consecutive B-frames: 13.3% 12.0% 14.5% 60.2%\n",
      "[libx264 @ 0x15010b6c0] mb I  I16..4:  0.0%  0.0% 100.0%\n",
      "[libx264 @ 0x15010b6c0] mb P  I16..4:  0.3%  2.0%  5.1%  P16..4: 34.0% 30.7% 22.6%  0.0%  0.0%    skip: 5.3%\n",
      "[libx264 @ 0x15010b6c0] mb B  I16..4:  0.1%  0.2%  0.5%  B16..8: 37.2% 11.4%  3.1%  direct: 3.8%  skip:43.8%  L0:32.2% L1:44.7% BI:23.1%\n",
      "[libx264 @ 0x15010b6c0] 8x8 transform intra:22.6% inter:46.7%\n",
      "[libx264 @ 0x15010b6c0] coded y,uvDC,uvAC intra: 70.2% 89.0% 58.7% inter: 28.9% 30.2% 7.2%\n",
      "[libx264 @ 0x15010b6c0] i16 v,h,dc,p: 17% 67% 17%  0%\n",
      "[libx264 @ 0x15010b6c0] i8 v,h,dc,ddl,ddr,vr,hd,vl,hu: 32% 36% 16%  4%  0%  0%  1%  1% 11%\n",
      "[libx264 @ 0x15010b6c0] i4 v,h,dc,ddl,ddr,vr,hd,vl,hu: 44% 21% 17%  3%  4%  2%  4%  3%  4%\n",
      "[libx264 @ 0x15010b6c0] i8c dc,h,v,p: 65% 12% 18%  5%\n",
      "[libx264 @ 0x15010b6c0] Weighted P-Frames: Y:17.2% UV:6.2%\n",
      "[libx264 @ 0x15010b6c0] ref P L0: 63.7% 19.5% 11.2%  5.1%  0.6%\n",
      "[libx264 @ 0x15010b6c0] ref B L0: 88.6%  8.4%  3.0%\n",
      "[libx264 @ 0x15010b6c0] ref B L1: 97.3%  2.7%\n",
      "[libx264 @ 0x15010b6c0] kb/s:50.78\n",
      "ffmpeg version 7.0.1 Copyright (c) 2000-2024 the FFmpeg developers\n",
      "  built with Apple clang version 15.0.0 (clang-1500.3.9.4)\n",
      "  configuration: --prefix=/opt/homebrew/Cellar/ffmpeg/7.0.1 --enable-shared --enable-pthreads --enable-version3 --cc=clang --host-cflags= --host-ldflags='-Wl,-ld_classic' --enable-ffplay --enable-gnutls --enable-gpl --enable-libaom --enable-libaribb24 --enable-libbluray --enable-libdav1d --enable-libharfbuzz --enable-libjxl --enable-libmp3lame --enable-libopus --enable-librav1e --enable-librist --enable-librubberband --enable-libsnappy --enable-libsrt --enable-libssh --enable-libsvtav1 --enable-libtesseract --enable-libtheora --enable-libvidstab --enable-libvmaf --enable-libvorbis --enable-libvpx --enable-libwebp --enable-libx264 --enable-libx265 --enable-libxml2 --enable-libxvid --enable-lzma --enable-libfontconfig --enable-libfreetype --enable-frei0r --enable-libass --enable-libopencore-amrnb --enable-libopencore-amrwb --enable-libopenjpeg --enable-libspeex --enable-libsoxr --enable-libzmq --enable-libzimg --disable-libjack --disable-indev=jack --enable-videotoolbox --enable-audiotoolbox --enable-neon\n",
      "  libavutil      59.  8.100 / 59.  8.100\n",
      "  libavcodec     61.  3.100 / 61.  3.100\n",
      "  libavformat    61.  1.100 / 61.  1.100\n",
      "  libavdevice    61.  1.100 / 61.  1.100\n",
      "  libavfilter    10.  1.100 / 10.  1.100\n",
      "  libswscale      8.  1.100 /  8.  1.100\n",
      "  libswresample   5.  1.100 /  5.  1.100\n",
      "  libpostproc    58.  1.100 / 58.  1.100\n",
      "Input #0, image2, from '../public/data/droid_00000001/images/wrist_image_left__image_%08d.webp':\n",
      "  Duration: 00:00:07.93, start: 0.000000, bitrate: N/A\n",
      "  Stream #0:0: Video: webp, yuv420p(tv, bt470bg/unknown/unknown), 88x50, 30 fps, 30 tbr, 30 tbn\n",
      "Stream mapping:\n",
      "  Stream #0:0 -> #0:0 (webp (native) -> h264 (libx264))\n",
      "Press [q] to stop, [?] for help\n",
      "[libx264 @ 0x137e2e840] using cpu capabilities: ARMv8 NEON\n",
      "[libx264 @ 0x137e2e840] profile High, level 1.0, 4:2:0, 8-bit\n",
      "[libx264 @ 0x137e2e840] 264 - core 164 r3108 31e19f9 - H.264/MPEG-4 AVC codec - Copyleft 2003-2023 - http://www.videolan.org/x264.html - options: cabac=1 ref=3 deblock=1:0:0 analyse=0x3:0x113 me=hex subme=7 psy=1 psy_rd=1.00:0.00 mixed_ref=1 me_range=16 chroma_me=1 trellis=1 8x8dct=1 cqm=0 deadzone=21,11 fast_pskip=1 chroma_qp_offset=-2 threads=2 lookahead_threads=1 sliced_threads=0 nr=0 decimate=1 interlaced=0 bluray_compat=0 constrained_intra=0 bframes=3 b_pyramid=2 b_adapt=1 b_bias=0 direct=1 weightb=1 open_gop=0 weightp=2 keyint=250 keyint_min=25 scenecut=40 intra_refresh=0 rc_lookahead=40 rc=crf mbtree=1 crf=23.0 qcomp=0.60 qpmin=0 qpmax=69 qpstep=4 ip_ratio=1.40 aq=1:1.00\n",
      "Output #0, mp4, to '../public/data/droid_00000001/video.mp4':\n",
      "  Metadata:\n",
      "    encoder         : Lavf61.1.100\n",
      "  Stream #0:0: Video: h264 (avc1 / 0x31637661), yuv420p(tv, bt470bg/unknown/unknown, progressive), 88x50, q=2-31, 30 fps, 15360 tbn\n",
      "      Metadata:\n",
      "        encoder         : Lavc61.3.100 libx264\n",
      "      Side data:\n",
      "        cpb: bitrate max/min/avg: 0/0/0 buffer size: 0 vbv_delay: N/A\n",
      "[out#0/mp4 @ 0x137e2d670] video:43KiB audio:0KiB subtitle:0KiB other streams:0KiB global headers:0KiB muxing overhead: 7.867172%\n",
      "frame=  238 fps=0.0 q=-1.0 Lsize=      47KiB time=00:00:07.86 bitrate=  48.6kbits/s speed= 166x    \n",
      "[libx264 @ 0x137e2e840] frame I:1     Avg QP:25.79  size:   931\n",
      "[libx264 @ 0x137e2e840] frame P:94    Avg QP:26.84  size:   358\n",
      "[libx264 @ 0x137e2e840] frame B:143   Avg QP:31.70  size:    63\n",
      "[libx264 @ 0x137e2e840] consecutive B-frames: 13.9% 12.6% 16.4% 57.1%\n",
      "[libx264 @ 0x137e2e840] mb I  I16..4:  0.0% 16.7% 83.3%\n",
      "[libx264 @ 0x137e2e840] mb P  I16..4:  0.6%  1.6%  4.3%  P16..4: 37.5% 29.2% 20.0%  0.0%  0.0%    skip: 6.7%\n",
      "[libx264 @ 0x137e2e840] mb B  I16..4:  0.1%  0.2%  0.2%  B16..8: 34.0% 10.4%  3.0%  direct: 3.0%  skip:49.0%  L0:29.8% L1:44.7% BI:25.5%\n",
      "[libx264 @ 0x137e2e840] 8x8 transform intra:25.7% inter:45.7%\n",
      "[libx264 @ 0x137e2e840] coded y,uvDC,uvAC intra: 58.4% 84.3% 38.7% inter: 24.1% 21.1% 6.9%\n",
      "[libx264 @ 0x137e2e840] i16 v,h,dc,p: 33%  6% 50% 11%\n",
      "[libx264 @ 0x137e2e840] i8 v,h,dc,ddl,ddr,vr,hd,vl,hu: 26% 28% 31%  3%  1%  1%  2%  3%  7%\n",
      "[libx264 @ 0x137e2e840] i4 v,h,dc,ddl,ddr,vr,hd,vl,hu: 40% 21% 19%  2%  3%  3%  4%  5%  3%\n",
      "[libx264 @ 0x137e2e840] i8c dc,h,v,p: 63% 22% 14%  2%\n",
      "[libx264 @ 0x137e2e840] Weighted P-Frames: Y:14.9% UV:1.1%\n",
      "[libx264 @ 0x137e2e840] ref P L0: 63.2% 21.2% 10.4%  4.4%  0.9%\n",
      "[libx264 @ 0x137e2e840] ref B L0: 91.2%  7.6%  1.1%\n",
      "[libx264 @ 0x137e2e840] ref B L1: 97.1%  2.9%\n",
      "[libx264 @ 0x137e2e840] kb/s:43.98\n",
      "ffmpeg version 7.0.1 Copyright (c) 2000-2024 the FFmpeg developers\n",
      "  built with Apple clang version 15.0.0 (clang-1500.3.9.4)\n",
      "  configuration: --prefix=/opt/homebrew/Cellar/ffmpeg/7.0.1 --enable-shared --enable-pthreads --enable-version3 --cc=clang --host-cflags= --host-ldflags='-Wl,-ld_classic' --enable-ffplay --enable-gnutls --enable-gpl --enable-libaom --enable-libaribb24 --enable-libbluray --enable-libdav1d --enable-libharfbuzz --enable-libjxl --enable-libmp3lame --enable-libopus --enable-librav1e --enable-librist --enable-librubberband --enable-libsnappy --enable-libsrt --enable-libssh --enable-libsvtav1 --enable-libtesseract --enable-libtheora --enable-libvidstab --enable-libvmaf --enable-libvorbis --enable-libvpx --enable-libwebp --enable-libx264 --enable-libx265 --enable-libxml2 --enable-libxvid --enable-lzma --enable-libfontconfig --enable-libfreetype --enable-frei0r --enable-libass --enable-libopencore-amrnb --enable-libopencore-amrwb --enable-libopenjpeg --enable-libspeex --enable-libsoxr --enable-libzmq --enable-libzimg --disable-libjack --disable-indev=jack --enable-videotoolbox --enable-audiotoolbox --enable-neon\n",
      "  libavutil      59.  8.100 / 59.  8.100\n",
      "  libavcodec     61.  3.100 / 61.  3.100\n",
      "  libavformat    61.  1.100 / 61.  1.100\n",
      "  libavdevice    61.  1.100 / 61.  1.100\n",
      "  libavfilter    10.  1.100 / 10.  1.100\n",
      "  libswscale      8.  1.100 /  8.  1.100\n",
      "  libswresample   5.  1.100 /  5.  1.100\n",
      "  libpostproc    58.  1.100 / 58.  1.100\n",
      "Input #0, image2, from '../public/data/droid_00000002/images/wrist_image_left__image_%08d.webp':\n",
      "  Duration: 00:00:04.73, start: 0.000000, bitrate: N/A\n",
      "  Stream #0:0: Video: webp, yuv420p(tv, bt470bg/unknown/unknown), 88x50, 30 fps, 30 tbr, 30 tbn\n",
      "Stream mapping:\n",
      "  Stream #0:0 -> #0:0 (webp (native) -> h264 (libx264))\n",
      "Press [q] to stop, [?] for help\n",
      "[libx264 @ 0x13b906150] using cpu capabilities: ARMv8 NEON\n",
      "[libx264 @ 0x13b906150] profile High, level 1.0, 4:2:0, 8-bit\n",
      "[libx264 @ 0x13b906150] 264 - core 164 r3108 31e19f9 - H.264/MPEG-4 AVC codec - Copyleft 2003-2023 - http://www.videolan.org/x264.html - options: cabac=1 ref=3 deblock=1:0:0 analyse=0x3:0x113 me=hex subme=7 psy=1 psy_rd=1.00:0.00 mixed_ref=1 me_range=16 chroma_me=1 trellis=1 8x8dct=1 cqm=0 deadzone=21,11 fast_pskip=1 chroma_qp_offset=-2 threads=2 lookahead_threads=1 sliced_threads=0 nr=0 decimate=1 interlaced=0 bluray_compat=0 constrained_intra=0 bframes=3 b_pyramid=2 b_adapt=1 b_bias=0 direct=1 weightb=1 open_gop=0 weightp=2 keyint=250 keyint_min=25 scenecut=40 intra_refresh=0 rc_lookahead=40 rc=crf mbtree=1 crf=23.0 qcomp=0.60 qpmin=0 qpmax=69 qpstep=4 ip_ratio=1.40 aq=1:1.00\n",
      "Output #0, mp4, to '../public/data/droid_00000002/video.mp4':\n",
      "  Metadata:\n",
      "    encoder         : Lavf61.1.100\n",
      "  Stream #0:0: Video: h264 (avc1 / 0x31637661), yuv420p(tv, bt470bg/unknown/unknown, progressive), 88x50, q=2-31, 30 fps, 15360 tbn\n",
      "      Metadata:\n",
      "        encoder         : Lavc61.3.100 libx264\n",
      "      Side data:\n",
      "        cpb: bitrate max/min/avg: 0/0/0 buffer size: 0 vbv_delay: N/A\n",
      "[out#0/mp4 @ 0x13b905b80] video:48KiB audio:0KiB subtitle:0KiB other streams:0KiB global headers:0KiB muxing overhead: 4.878798%\n",
      "frame=  142 fps=0.0 q=-1.0 Lsize=      50KiB time=00:00:04.66 bitrate=  87.7kbits/s speed= 115x    \n",
      "[libx264 @ 0x13b906150] frame I:1     Avg QP:26.17  size:  1574\n",
      "[libx264 @ 0x13b906150] frame P:69    Avg QP:28.26  size:   525\n",
      "[libx264 @ 0x13b906150] frame B:72    Avg QP:31.59  size:   143\n",
      "[libx264 @ 0x13b906150] consecutive B-frames: 26.8% 14.1%  8.5% 50.7%\n",
      "[libx264 @ 0x13b906150] mb I  I16..4:  0.0%  0.0% 100.0%\n",
      "[libx264 @ 0x13b906150] mb P  I16..4:  0.1%  1.5%  8.0%  P16..4: 32.2% 31.0% 24.2%  0.0%  0.0%    skip: 2.9%\n",
      "[libx264 @ 0x13b906150] mb B  I16..4:  0.0%  0.3%  1.1%  B16..8: 35.9% 18.3%  9.2%  direct: 5.3%  skip:29.9%  L0:29.9% L1:41.4% BI:28.6%\n",
      "[libx264 @ 0x13b906150] 8x8 transform intra:14.9% inter:42.8%\n",
      "[libx264 @ 0x13b906150] coded y,uvDC,uvAC intra: 67.9% 94.7% 76.4% inter: 39.8% 50.2% 26.7%\n",
      "[libx264 @ 0x13b906150] i16 v,h,dc,p: 50%  0% 50%  0%\n",
      "[libx264 @ 0x13b906150] i8 v,h,dc,ddl,ddr,vr,hd,vl,hu: 42% 33%  8%  2%  3%  2%  6%  2%  2%\n",
      "[libx264 @ 0x13b906150] i4 v,h,dc,ddl,ddr,vr,hd,vl,hu: 45% 15% 16%  3%  4%  3%  5%  4%  4%\n",
      "[libx264 @ 0x13b906150] i8c dc,h,v,p: 56% 12% 28%  3%\n",
      "[libx264 @ 0x13b906150] Weighted P-Frames: Y:15.9% UV:2.9%\n",
      "[libx264 @ 0x13b906150] ref P L0: 65.0% 21.9%  8.9%  3.3%  0.9%\n",
      "[libx264 @ 0x13b906150] ref B L0: 92.2%  6.4%  1.4%\n",
      "[libx264 @ 0x13b906150] ref B L1: 98.5%  1.5%\n",
      "[libx264 @ 0x13b906150] kb/s:81.32\n",
      "ffmpeg version 7.0.1 Copyright (c) 2000-2024 the FFmpeg developers\n",
      "  built with Apple clang version 15.0.0 (clang-1500.3.9.4)\n",
      "  configuration: --prefix=/opt/homebrew/Cellar/ffmpeg/7.0.1 --enable-shared --enable-pthreads --enable-version3 --cc=clang --host-cflags= --host-ldflags='-Wl,-ld_classic' --enable-ffplay --enable-gnutls --enable-gpl --enable-libaom --enable-libaribb24 --enable-libbluray --enable-libdav1d --enable-libharfbuzz --enable-libjxl --enable-libmp3lame --enable-libopus --enable-librav1e --enable-librist --enable-librubberband --enable-libsnappy --enable-libsrt --enable-libssh --enable-libsvtav1 --enable-libtesseract --enable-libtheora --enable-libvidstab --enable-libvmaf --enable-libvorbis --enable-libvpx --enable-libwebp --enable-libx264 --enable-libx265 --enable-libxml2 --enable-libxvid --enable-lzma --enable-libfontconfig --enable-libfreetype --enable-frei0r --enable-libass --enable-libopencore-amrnb --enable-libopencore-amrwb --enable-libopenjpeg --enable-libspeex --enable-libsoxr --enable-libzmq --enable-libzimg --disable-libjack --disable-indev=jack --enable-videotoolbox --enable-audiotoolbox --enable-neon\n",
      "  libavutil      59.  8.100 / 59.  8.100\n",
      "  libavcodec     61.  3.100 / 61.  3.100\n",
      "  libavformat    61.  1.100 / 61.  1.100\n",
      "  libavdevice    61.  1.100 / 61.  1.100\n",
      "  libavfilter    10.  1.100 / 10.  1.100\n",
      "  libswscale      8.  1.100 /  8.  1.100\n",
      "  libswresample   5.  1.100 /  5.  1.100\n",
      "  libpostproc    58.  1.100 / 58.  1.100\n",
      "Input #0, image2, from '../public/data/droid_00000003/images/wrist_image_left__image_%08d.webp':\n",
      "  Duration: 00:00:06.83, start: 0.000000, bitrate: N/A\n",
      "  Stream #0:0: Video: webp, yuv420p(tv, bt470bg/unknown/unknown), 88x50, 30 fps, 30 tbr, 30 tbn\n",
      "Stream mapping:\n",
      "  Stream #0:0 -> #0:0 (webp (native) -> h264 (libx264))\n",
      "Press [q] to stop, [?] for help\n",
      "[libx264 @ 0x159f06ce0] using cpu capabilities: ARMv8 NEON\n",
      "[libx264 @ 0x159f06ce0] profile High, level 1.0, 4:2:0, 8-bit\n",
      "[libx264 @ 0x159f06ce0] 264 - core 164 r3108 31e19f9 - H.264/MPEG-4 AVC codec - Copyleft 2003-2023 - http://www.videolan.org/x264.html - options: cabac=1 ref=3 deblock=1:0:0 analyse=0x3:0x113 me=hex subme=7 psy=1 psy_rd=1.00:0.00 mixed_ref=1 me_range=16 chroma_me=1 trellis=1 8x8dct=1 cqm=0 deadzone=21,11 fast_pskip=1 chroma_qp_offset=-2 threads=2 lookahead_threads=1 sliced_threads=0 nr=0 decimate=1 interlaced=0 bluray_compat=0 constrained_intra=0 bframes=3 b_pyramid=2 b_adapt=1 b_bias=0 direct=1 weightb=1 open_gop=0 weightp=2 keyint=250 keyint_min=25 scenecut=40 intra_refresh=0 rc_lookahead=40 rc=crf mbtree=1 crf=23.0 qcomp=0.60 qpmin=0 qpmax=69 qpstep=4 ip_ratio=1.40 aq=1:1.00\n",
      "Output #0, mp4, to '../public/data/droid_00000003/video.mp4':\n",
      "  Metadata:\n",
      "    encoder         : Lavf61.1.100\n",
      "  Stream #0:0: Video: h264 (avc1 / 0x31637661), yuv420p(tv, bt470bg/unknown/unknown, progressive), 88x50, q=2-31, 30 fps, 15360 tbn\n",
      "      Metadata:\n",
      "        encoder         : Lavc61.3.100 libx264\n",
      "      Side data:\n",
      "        cpb: bitrate max/min/avg: 0/0/0 buffer size: 0 vbv_delay: N/A\n",
      "[out#0/mp4 @ 0x159f056d0] video:41KiB audio:0KiB subtitle:0KiB other streams:0KiB global headers:0KiB muxing overhead: 7.324436%\n",
      "frame=  205 fps=0.0 q=-1.0 Lsize=      44KiB time=00:00:06.76 bitrate=  53.0kbits/s speed= 153x    \n",
      "[libx264 @ 0x159f06ce0] frame I:1     Avg QP:26.33  size:   879\n",
      "[libx264 @ 0x159f06ce0] frame P:90    Avg QP:27.86  size:   350\n",
      "[libx264 @ 0x159f06ce0] frame B:114   Avg QP:32.00  size:    76\n",
      "[libx264 @ 0x159f06ce0] consecutive B-frames: 19.0% 16.6% 11.7% 52.7%\n",
      "[libx264 @ 0x159f06ce0] mb I  I16..4:  0.0%  8.3% 91.7%\n",
      "[libx264 @ 0x159f06ce0] mb P  I16..4:  1.0%  3.3%  6.6%  P16..4: 34.6% 30.9% 17.5%  0.0%  0.0%    skip: 6.2%\n",
      "[libx264 @ 0x159f06ce0] mb B  I16..4:  0.1%  0.4%  0.5%  B16..8: 34.2% 11.2%  2.8%  direct: 3.4%  skip:47.4%  L0:29.0% L1:40.9% BI:30.1%\n",
      "[libx264 @ 0x159f06ce0] 8x8 transform intra:29.5% inter:49.0%\n",
      "[libx264 @ 0x159f06ce0] coded y,uvDC,uvAC intra: 60.4% 38.2% 14.6% inter: 29.1% 12.9% 3.6%\n",
      "[libx264 @ 0x159f06ce0] i16 v,h,dc,p: 17% 39% 39%  4%\n",
      "[libx264 @ 0x159f06ce0] i8 v,h,dc,ddl,ddr,vr,hd,vl,hu: 29% 29% 21%  2%  3%  3%  3%  2%  9%\n",
      "[libx264 @ 0x159f06ce0] i4 v,h,dc,ddl,ddr,vr,hd,vl,hu: 48% 19% 15%  2%  4%  4%  3%  2%  3%\n",
      "[libx264 @ 0x159f06ce0] i8c dc,h,v,p: 76% 14% 10%  0%\n",
      "[libx264 @ 0x159f06ce0] Weighted P-Frames: Y:24.4% UV:1.1%\n",
      "[libx264 @ 0x159f06ce0] ref P L0: 63.5% 20.2% 12.5%  3.5%  0.4%\n",
      "[libx264 @ 0x159f06ce0] ref B L0: 93.2%  5.8%  1.0%\n",
      "[libx264 @ 0x159f06ce0] ref B L1: 97.2%  2.8%\n",
      "[libx264 @ 0x159f06ce0] kb/s:48.06\n",
      "ffmpeg version 7.0.1 Copyright (c) 2000-2024 the FFmpeg developers\n",
      "  built with Apple clang version 15.0.0 (clang-1500.3.9.4)\n",
      "  configuration: --prefix=/opt/homebrew/Cellar/ffmpeg/7.0.1 --enable-shared --enable-pthreads --enable-version3 --cc=clang --host-cflags= --host-ldflags='-Wl,-ld_classic' --enable-ffplay --enable-gnutls --enable-gpl --enable-libaom --enable-libaribb24 --enable-libbluray --enable-libdav1d --enable-libharfbuzz --enable-libjxl --enable-libmp3lame --enable-libopus --enable-librav1e --enable-librist --enable-librubberband --enable-libsnappy --enable-libsrt --enable-libssh --enable-libsvtav1 --enable-libtesseract --enable-libtheora --enable-libvidstab --enable-libvmaf --enable-libvorbis --enable-libvpx --enable-libwebp --enable-libx264 --enable-libx265 --enable-libxml2 --enable-libxvid --enable-lzma --enable-libfontconfig --enable-libfreetype --enable-frei0r --enable-libass --enable-libopencore-amrnb --enable-libopencore-amrwb --enable-libopenjpeg --enable-libspeex --enable-libsoxr --enable-libzmq --enable-libzimg --disable-libjack --disable-indev=jack --enable-videotoolbox --enable-audiotoolbox --enable-neon\n",
      "  libavutil      59.  8.100 / 59.  8.100\n",
      "  libavcodec     61.  3.100 / 61.  3.100\n",
      "  libavformat    61.  1.100 / 61.  1.100\n",
      "  libavdevice    61.  1.100 / 61.  1.100\n",
      "  libavfilter    10.  1.100 / 10.  1.100\n",
      "  libswscale      8.  1.100 /  8.  1.100\n",
      "  libswresample   5.  1.100 /  5.  1.100\n",
      "  libpostproc    58.  1.100 / 58.  1.100\n",
      "Input #0, image2, from '../public/data/droid_00000004/images/wrist_image_left__image_%08d.webp':\n",
      "  Duration: 00:00:07.10, start: 0.000000, bitrate: N/A\n",
      "  Stream #0:0: Video: webp, yuv420p(tv, bt470bg/unknown/unknown), 88x50, 30 fps, 30 tbr, 30 tbn\n",
      "Stream mapping:\n",
      "  Stream #0:0 -> #0:0 (webp (native) -> h264 (libx264))\n",
      "Press [q] to stop, [?] for help\n",
      "[libx264 @ 0x143207ae0] using cpu capabilities: ARMv8 NEON\n",
      "[libx264 @ 0x143207ae0] profile High, level 1.0, 4:2:0, 8-bit\n",
      "[libx264 @ 0x143207ae0] 264 - core 164 r3108 31e19f9 - H.264/MPEG-4 AVC codec - Copyleft 2003-2023 - http://www.videolan.org/x264.html - options: cabac=1 ref=3 deblock=1:0:0 analyse=0x3:0x113 me=hex subme=7 psy=1 psy_rd=1.00:0.00 mixed_ref=1 me_range=16 chroma_me=1 trellis=1 8x8dct=1 cqm=0 deadzone=21,11 fast_pskip=1 chroma_qp_offset=-2 threads=2 lookahead_threads=1 sliced_threads=0 nr=0 decimate=1 interlaced=0 bluray_compat=0 constrained_intra=0 bframes=3 b_pyramid=2 b_adapt=1 b_bias=0 direct=1 weightb=1 open_gop=0 weightp=2 keyint=250 keyint_min=25 scenecut=40 intra_refresh=0 rc_lookahead=40 rc=crf mbtree=1 crf=23.0 qcomp=0.60 qpmin=0 qpmax=69 qpstep=4 ip_ratio=1.40 aq=1:1.00\n",
      "Output #0, mp4, to '../public/data/droid_00000004/video.mp4':\n",
      "  Metadata:\n",
      "    encoder         : Lavf61.1.100\n",
      "  Stream #0:0: Video: h264 (avc1 / 0x31637661), yuv420p(tv, bt470bg/unknown/unknown, progressive), 88x50, q=2-31, 30 fps, 15360 tbn\n",
      "      Metadata:\n",
      "        encoder         : Lavc61.3.100 libx264\n",
      "      Side data:\n",
      "        cpb: bitrate max/min/avg: 0/0/0 buffer size: 0 vbv_delay: N/A\n",
      "[out#0/mp4 @ 0x143206070] video:35KiB audio:0KiB subtitle:0KiB other streams:0KiB global headers:0KiB muxing overhead: 8.369081%\n",
      "frame=  213 fps=0.0 q=-1.0 Lsize=      38KiB time=00:00:07.03 bitrate=  44.0kbits/s speed= 160x    \n",
      "[libx264 @ 0x143207ae0] frame I:1     Avg QP:25.17  size:   696\n",
      "[libx264 @ 0x143207ae0] frame P:109   Avg QP:27.19  size:   259\n",
      "[libx264 @ 0x143207ae0] frame B:103   Avg QP:30.58  size:    58\n",
      "[libx264 @ 0x143207ae0] consecutive B-frames: 28.2% 17.8% 12.7% 41.3%\n",
      "[libx264 @ 0x143207ae0] mb I  I16..4:  0.0% 29.2% 70.8%\n",
      "[libx264 @ 0x143207ae0] mb P  I16..4:  0.7%  3.0%  4.5%  P16..4: 39.0% 29.2% 15.2%  0.0%  0.0%    skip: 8.4%\n",
      "[libx264 @ 0x143207ae0] mb B  I16..4:  0.1%  0.2%  0.3%  B16..8: 35.6% 11.5%  3.1%  direct: 2.2%  skip:47.1%  L0:32.4% L1:49.8% BI:17.8%\n",
      "[libx264 @ 0x143207ae0] 8x8 transform intra:35.8% inter:49.2%\n",
      "[libx264 @ 0x143207ae0] coded y,uvDC,uvAC intra: 57.9% 55.1% 20.5% inter: 23.9% 11.7% 2.1%\n",
      "[libx264 @ 0x143207ae0] i16 v,h,dc,p: 15% 35% 45%  5%\n",
      "[libx264 @ 0x143207ae0] i8 v,h,dc,ddl,ddr,vr,hd,vl,hu: 34% 21% 30%  2%  1%  5%  1%  4%  2%\n",
      "[libx264 @ 0x143207ae0] i4 v,h,dc,ddl,ddr,vr,hd,vl,hu: 43% 18% 24%  2%  3%  4%  2%  2%  2%\n",
      "[libx264 @ 0x143207ae0] i8c dc,h,v,p: 75% 10% 15%  0%\n",
      "[libx264 @ 0x143207ae0] Weighted P-Frames: Y:15.6% UV:0.0%\n",
      "[libx264 @ 0x143207ae0] ref P L0: 64.6% 19.7% 10.4%  4.7%  0.6%\n",
      "[libx264 @ 0x143207ae0] ref B L0: 87.5% 10.2%  2.2%\n",
      "[libx264 @ 0x143207ae0] ref B L1: 97.6%  2.4%\n",
      "[libx264 @ 0x143207ae0] kb/s:39.41\n",
      "ffmpeg version 7.0.1 Copyright (c) 2000-2024 the FFmpeg developers\n",
      "  built with Apple clang version 15.0.0 (clang-1500.3.9.4)\n",
      "  configuration: --prefix=/opt/homebrew/Cellar/ffmpeg/7.0.1 --enable-shared --enable-pthreads --enable-version3 --cc=clang --host-cflags= --host-ldflags='-Wl,-ld_classic' --enable-ffplay --enable-gnutls --enable-gpl --enable-libaom --enable-libaribb24 --enable-libbluray --enable-libdav1d --enable-libharfbuzz --enable-libjxl --enable-libmp3lame --enable-libopus --enable-librav1e --enable-librist --enable-librubberband --enable-libsnappy --enable-libsrt --enable-libssh --enable-libsvtav1 --enable-libtesseract --enable-libtheora --enable-libvidstab --enable-libvmaf --enable-libvorbis --enable-libvpx --enable-libwebp --enable-libx264 --enable-libx265 --enable-libxml2 --enable-libxvid --enable-lzma --enable-libfontconfig --enable-libfreetype --enable-frei0r --enable-libass --enable-libopencore-amrnb --enable-libopencore-amrwb --enable-libopenjpeg --enable-libspeex --enable-libsoxr --enable-libzmq --enable-libzimg --disable-libjack --disable-indev=jack --enable-videotoolbox --enable-audiotoolbox --enable-neon\n",
      "  libavutil      59.  8.100 / 59.  8.100\n",
      "  libavcodec     61.  3.100 / 61.  3.100\n",
      "  libavformat    61.  1.100 / 61.  1.100\n",
      "  libavdevice    61.  1.100 / 61.  1.100\n",
      "  libavfilter    10.  1.100 / 10.  1.100\n",
      "  libswscale      8.  1.100 /  8.  1.100\n",
      "  libswresample   5.  1.100 /  5.  1.100\n",
      "  libpostproc    58.  1.100 / 58.  1.100\n",
      "Input #0, image2, from '../public/data/droid_00000005/images/wrist_image_left__image_%08d.webp':\n",
      "  Duration: 00:00:02.90, start: 0.000000, bitrate: N/A\n",
      "  Stream #0:0: Video: webp, yuv420p(tv, bt470bg/unknown/unknown), 88x50, 30 fps, 30 tbr, 30 tbn\n",
      "Stream mapping:\n",
      "  Stream #0:0 -> #0:0 (webp (native) -> h264 (libx264))\n",
      "Press [q] to stop, [?] for help\n",
      "[libx264 @ 0x13462e840] using cpu capabilities: ARMv8 NEON\n",
      "[libx264 @ 0x13462e840] profile High, level 1.0, 4:2:0, 8-bit\n",
      "[libx264 @ 0x13462e840] 264 - core 164 r3108 31e19f9 - H.264/MPEG-4 AVC codec - Copyleft 2003-2023 - http://www.videolan.org/x264.html - options: cabac=1 ref=3 deblock=1:0:0 analyse=0x3:0x113 me=hex subme=7 psy=1 psy_rd=1.00:0.00 mixed_ref=1 me_range=16 chroma_me=1 trellis=1 8x8dct=1 cqm=0 deadzone=21,11 fast_pskip=1 chroma_qp_offset=-2 threads=2 lookahead_threads=1 sliced_threads=0 nr=0 decimate=1 interlaced=0 bluray_compat=0 constrained_intra=0 bframes=3 b_pyramid=2 b_adapt=1 b_bias=0 direct=1 weightb=1 open_gop=0 weightp=2 keyint=250 keyint_min=25 scenecut=40 intra_refresh=0 rc_lookahead=40 rc=crf mbtree=1 crf=23.0 qcomp=0.60 qpmin=0 qpmax=69 qpstep=4 ip_ratio=1.40 aq=1:1.00\n",
      "Output #0, mp4, to '../public/data/droid_00000005/video.mp4':\n",
      "  Metadata:\n",
      "    encoder         : Lavf61.1.100\n",
      "  Stream #0:0: Video: h264 (avc1 / 0x31637661), yuv420p(tv, bt470bg/unknown/unknown, progressive), 88x50, q=2-31, 30 fps, 15360 tbn\n",
      "      Metadata:\n",
      "        encoder         : Lavc61.3.100 libx264\n",
      "      Side data:\n",
      "        cpb: bitrate max/min/avg: 0/0/0 buffer size: 0 vbv_delay: N/A\n",
      "[out#0/mp4 @ 0x13462d1d0] video:21KiB audio:0KiB subtitle:0KiB other streams:0KiB global headers:0KiB muxing overhead: 8.057225%\n",
      "frame=   87 fps=0.0 q=-1.0 Lsize=      23KiB time=00:00:02.83 bitrate=  65.5kbits/s speed= 118x    \n",
      "[libx264 @ 0x13462e840] frame I:1     Avg QP:25.54  size:  1042\n",
      "[libx264 @ 0x13462e840] frame P:45    Avg QP:27.72  size:   329\n",
      "[libx264 @ 0x13462e840] frame B:41    Avg QP:30.41  size:   120\n",
      "[libx264 @ 0x13462e840] consecutive B-frames: 32.2%  9.2% 17.2% 41.4%\n",
      "[libx264 @ 0x13462e840] mb I  I16..4:  0.0%  4.2% 95.8%\n",
      "[libx264 @ 0x13462e840] mb P  I16..4:  1.0%  4.4%  5.6%  P16..4: 37.8% 33.5% 13.9%  0.0%  0.0%    skip: 3.8%\n",
      "[libx264 @ 0x13462e840] mb B  I16..4:  0.2%  0.6%  0.8%  B16..8: 38.0% 13.2%  4.0%  direct: 7.1%  skip:36.1%  L0:29.7% L1:40.9% BI:29.5%\n",
      "[libx264 @ 0x13462e840] 8x8 transform intra:34.0% inter:51.9%\n",
      "[libx264 @ 0x13462e840] coded y,uvDC,uvAC intra: 68.7% 93.1% 57.9% inter: 38.7% 46.0% 7.9%\n",
      "[libx264 @ 0x13462e840] i16 v,h,dc,p: 23% 46% 31%  0%\n",
      "[libx264 @ 0x13462e840] i8 v,h,dc,ddl,ddr,vr,hd,vl,hu: 32% 19% 24%  4%  4%  1%  3%  5%  8%\n",
      "[libx264 @ 0x13462e840] i4 v,h,dc,ddl,ddr,vr,hd,vl,hu: 32% 21% 24%  4%  4%  3%  4%  4%  5%\n",
      "[libx264 @ 0x13462e840] i8c dc,h,v,p: 59% 14% 23%  3%\n",
      "[libx264 @ 0x13462e840] Weighted P-Frames: Y:20.0% UV:13.3%\n",
      "[libx264 @ 0x13462e840] ref P L0: 65.3% 20.1%  9.6%  3.9%  1.1%\n",
      "[libx264 @ 0x13462e840] ref B L0: 92.4%  5.5%  2.1%\n",
      "[libx264 @ 0x13462e840] ref B L1: 98.4%  1.6%\n",
      "[libx264 @ 0x13462e840] kb/s:57.30\n"
     ]
    }
   ],
   "source": [
    "# Load the dataset\n",
    "ds = tfds.load(\"droid_100\", data_dir=\"../../data\", split=\"train\")\n",
    "\n",
    "# Create an iterator\n",
    "ds_iter = iter(ds)\n",
    "\n",
    "for i in range(6):  # range(len(ds)):\n",
    "    data_folder = f\"../public/data/droid_{i:08d}\"\n",
    "    subprocess.call([\"mkdir\", \"-p\", data_folder])\n",
    "\n",
    "    # Save information\n",
    "    information = get_information(i)\n",
    "    information[\"dataFolderName\"] = f\"droid_{i:08d}\"\n",
    "    information[\"taskDescription\"] = f\"pick up an item\"\n",
    "    information[\"subtaskDescription\"] = f\"reach out and pick up an item\"\n",
    "\n",
    "    subprocess.call([\"mkdir\", \"-p\", f\"{data_folder}/trajectories\"])\n",
    "    images = {}\n",
    "    trajectories = {}\n",
    "    cat_pose = []\n",
    "    # Save Trajectory\n",
    "    episode = next(ds_iter)\n",
    "    for step in episode[\"steps\"]:\n",
    "        for joint in information[\"joints\"]:\n",
    "            if joint not in trajectories.keys():\n",
    "                trajectories[joint] = []\n",
    "            trajectories[joint].append(step[\"action_dict\"][joint].numpy())\n",
    "        for c in information[\"cameras\"]:\n",
    "            if c not in images.keys():\n",
    "                images[c] = []\n",
    "\n",
    "            img = Image.fromarray(\n",
    "                np.concatenate((step[\"observation\"][c].numpy(),), axis=1)\n",
    "            )\n",
    "\n",
    "            # Get the current width and height of the image\n",
    "            width, height = img.size\n",
    "\n",
    "            # Calculate the new width while keeping the aspect ratio\n",
    "            aspect_ratio = width / height\n",
    "            new_height = 50\n",
    "            new_width = int(new_height * aspect_ratio)\n",
    "\n",
    "            # Resize the image\n",
    "            resized_image = img.resize(\n",
    "                (new_width, new_height), Image.Resampling.LANCZOS\n",
    "            )\n",
    "\n",
    "            # Save or show the resized image\n",
    "            images[c].append(resized_image)\n",
    "\n",
    "    for joint in information[\"joints\"]:\n",
    "        df = pd.DataFrame(\n",
    "            trajectories[joint], columns=[\"x\", \"y\", \"z\", \"roll\", \"pitch\", \"yaw\"]\n",
    "        )\n",
    "        df.to_json(\n",
    "            f\"{data_folder}/trajectories/{joint}__trajectory.json\",\n",
    "            orient=\"records\",\n",
    "            index=False,\n",
    "        )\n",
    "\n",
    "    # Save Image\n",
    "    subprocess.call([\"mkdir\", \"-p\", f\"{data_folder}/images\"])\n",
    "    for c in information[\"cameras\"]:\n",
    "        for j, image in enumerate(images[c]):\n",
    "            # Save the image in WebP format\n",
    "            image.save(f\"{data_folder}/images/{c}__image_{j:08d}.webp\", format=\"WEBP\")\n",
    "\n",
    "        df_img = pd.DataFrame()\n",
    "        df_img[\"image\"] = [f\"{c}__image_{j:08d}.webp\" for j in range(len(df))]\n",
    "        df_img.to_json(\n",
    "            f\"{data_folder}/images/{c}__image.json\", orient=\"records\", index=False\n",
    "        )\n",
    "\n",
    "    # Define the directory containing the image sequence\n",
    "    output_video = f\"{data_folder}/video.mp4\"\n",
    "    c = information[\"cameras\"][-1]\n",
    "\n",
    "    frame_list_path = f\"frame_list.txt\"\n",
    "\n",
    "    # Create the frame list for every 100th image\n",
    "    with open(frame_list_path, \"w\") as f:\n",
    "        for i in range(0, len(df), 1):  # Adjust the range and step size as needed\n",
    "            f.write(f\"file '{data_folder}/images/{c}__image_{i:08d}.webp'\\n\")\n",
    "\n",
    "    ffmpeg_command = f\"ffmpeg -y -framerate 30 -i '{data_folder}/images/{c}__image_%08d.webp' -c:v libx264 -pix_fmt yuv420p '{data_folder}/video.mp4'\"\n",
    "    # ffmpeg_command = f\"ffmpeg -y -f concat -safe 0 -i {frame_list_path} -c:v libx264 -pix_fmt yuv420p -movflags +faststart '{data_folder}/video.mp4'\"\n",
    "    # ffmpeg_command = f\"ffmpeg -y -framerate 30 -i {frame_list_path} -c:v libx264 -pix_fmt yuv420p '{data_folder}/video.mp4'\"\n",
    "\n",
    "    subprocess.call(\n",
    "        ffmpeg_command,\n",
    "        shell=True,\n",
    "    )\n",
    "\n",
    "    # ffmpeg_command = f\"ffmpeg -y -f concat -safe 0 -i {frame_list_path} -c:v libx264 -pix_fmt yuv420p '{data_folder}/video.mp4'\"\n",
    "\n",
    "    # Assuming 'information' is the data you want to write to the JSON file\n",
    "    information[\"dataLength\"] = len(df)\n",
    "    information[\"durationInSeconds\"] = (\n",
    "        f'{len(df) / information[\"videoSamplingRate\"]:.2f}'\n",
    "    )\n",
    "    with open(f\"{data_folder}/information.json\", \"w\") as json_file:\n",
    "        json.dump(\n",
    "            information, json_file, indent=2\n",
    "        )  # The indent argument is optional, for pretty formatting"
   ]
  },
  {
   "cell_type": "code",
   "execution_count": null,
   "metadata": {},
   "outputs": [],
   "source": []
  },
  {
   "cell_type": "code",
   "execution_count": 57,
   "metadata": {},
   "outputs": [],
   "source": [
    "def plain_format_action_dict(step):\n",
    "    formatted_action_dict = {}\n",
    "\n",
    "    for k, v in step.items():\n",
    "        try:\n",
    "            if isinstance(v, dict):\n",
    "                # If the value is a dictionary, recurse into it\n",
    "                formatted_action_dict[k] = plain_format_action_dict(v)\n",
    "            elif isinstance(v, tf.Tensor) and v.dtype == tf.string:\n",
    "                # If the value is a bytes (string in TensorFlow), decode it\n",
    "                formatted_action_dict[k] = v.numpy().decode(\"utf-8\")\n",
    "            elif isinstance(v, tf.Tensor):\n",
    "                # If the value is a Tensor, convert to a list\n",
    "                formatted_action_dict[k] = v.numpy().tolist()\n",
    "            else:\n",
    "                # Handle other data types directly (like int, float, bool)\n",
    "                formatted_action_dict[k] = v\n",
    "        except Exception as e:\n",
    "            print(f\"Error processing key '{k}': {e}\")\n",
    "\n",
    "    return json.dumps(formatted_action_dict)\n",
    "\n",
    "\n",
    "# Assuming `ds` is a dataset object with a proper iterator\n",
    "ds_iter = iter(ds)\n",
    "data_list = []\n",
    "\n",
    "for i in range(1):  # Adjust as needed\n",
    "    episode = next(ds_iter)\n",
    "    step_data_list = []\n",
    "    for step in episode[\"steps\"]:\n",
    "        step_data_list.append(step)\n",
    "    new_step_data_list = []\n",
    "    for step in step_data_list:  # Adjust as needed\n",
    "        new_step_data_list.append(plain_format_action_dict(step))"
   ]
  },
  {
   "cell_type": "code",
   "execution_count": 58,
   "metadata": {},
   "outputs": [],
   "source": [
    "data2_list = []"
   ]
  },
  {
   "cell_type": "code",
   "execution_count": 59,
   "metadata": {},
   "outputs": [
    {
     "data": {
      "text/plain": [
       "[]"
      ]
     },
     "execution_count": 59,
     "metadata": {},
     "output_type": "execute_result"
    }
   ],
   "source": [
    "data2_list"
   ]
  },
  {
   "cell_type": "code",
   "execution_count": null,
   "metadata": {},
   "outputs": [],
   "source": []
  }
 ],
 "metadata": {
  "kernelspec": {
   "display_name": "Python 3",
   "language": "python",
   "name": "python3"
  },
  "language_info": {
   "codemirror_mode": {
    "name": "ipython",
    "version": 3
   },
   "file_extension": ".py",
   "mimetype": "text/x-python",
   "name": "python",
   "nbconvert_exporter": "python",
   "pygments_lexer": "ipython3",
   "version": "3.11.9"
  }
 },
 "nbformat": 4,
 "nbformat_minor": 2
}
